<?xml version="1.0" standalone="no"?>
<!DOCTYPE svg PUBLIC "-//W3C//DTD SVG 20010904//EN"
 "http://www.w3.org/TR/2001/REC-SVG-20010904/DTD/svg10.dtd">
<svg version="1.0" xmlns="http://www.w3.org/2000/svg"
 width="16.000000pt" height="16.000000pt" viewBox="0 0 16.000000 16.000000"
 preserveAspectRatio="xMidYMid meet">
<metadata>
Created by potrace 1.11, written by Peter Selinger 2001-2013
</metadata>
<g transform="translate(0.000000,16.000000) scale(0.008333,-0.008333)"
fill="#000000" stroke="none">
<path d="M815 1820 c-218 -35 -427 -163 -567 -350 -57 -75 -128 -241 -146
-340 -12 -67 -10 -269 4 -332 47 -221 172 -410 355 -535 81 -56 205 -112 281
-127 13 -3 46 -9 73 -15 28 -5 256 -10 522 -11 l472 -1 -1 472 c-1 461 -4 506
-35 619 -61 227 -227 430 -439 538 -41 21 -152 61 -189 68 -11 2 -31 6 -45 9
-49 11 -226 14 -285 5z m251 -595 c80 -36 143 -114 159 -197 9 -46 11 -321 2
-334 -3 -6 -71 -9 -174 -8 -134 1 -176 5 -208 19 -155 67 -223 241 -152 388
70 142 226 197 373 132z"/>
</g>
</svg>
